<svg width="45" height="44" viewBox="0 0 45 44" fill="none" xmlns="http://www.w3.org/2000/svg">
<path d="M17.58 7.29941C16.4729 6.03868 14.8343 5.33866 13.1482 5.47013C10.4545 5.68015 8.55017 5.96422 7.2501 6.22183C5.68555 6.53184 4.62684 7.75247 4.45929 9.317C4.22206 11.5324 3.95923 15.522 3.95923 22.326C3.95923 29.1302 4.22206 33.1199 4.45929 35.3351C4.62684 36.8998 5.68394 38.1199 7.24847 38.43C9.69967 38.9159 14.3 39.4961 22.2926 39.4961C23.9959 39.4961 25.5453 39.4697 26.9525 39.4235C26.9399 38.4929 26.927 37.3271 26.9155 35.8864C26.4832 35.8715 26.1255 35.8522 25.843 35.8334C25.3837 35.8027 25.0426 35.4272 25.0426 34.9773V34.1608C25.0426 33.711 25.3837 33.3356 25.843 33.3048C26.1217 33.2863 26.4733 33.2672 26.8977 33.2525C26.8918 32.1583 26.8867 30.9487 26.8829 29.6143C26.4652 29.5996 26.1185 29.5808 25.843 29.5625C25.3837 29.5319 25.0426 29.1564 25.0426 28.7065V27.89C25.0426 27.4401 25.3837 27.0648 25.843 27.034C26.1173 27.0157 26.4623 26.997 26.8775 26.9824C26.8764 26.1213 26.8759 25.2168 26.8759 24.2671L26.8761 23.3433C26.4614 23.3286 26.1171 23.31 25.843 23.2917C25.3837 23.2611 25.0426 22.8855 25.0426 22.4356V21.6192C25.0426 21.1693 25.3837 20.7939 25.843 20.7631C26.1176 20.7448 26.4628 20.7262 26.8788 20.7115C26.8812 19.3936 26.8849 18.183 26.8893 17.0729C26.4687 17.0582 26.1198 17.0392 25.843 17.0208C25.3837 16.9902 25.0426 16.6146 25.0426 16.1648V15.3483C25.0426 14.8985 25.3837 14.523 25.843 14.4923C26.1228 14.4737 26.476 14.4546 26.9027 14.4398C26.912 12.9189 26.9232 11.6419 26.9347 10.5783H29.567C29.5786 11.6384 29.5896 12.9104 29.5989 14.4246C30.1024 14.4368 30.4799 14.4568 30.7582 14.478C31.1738 14.5096 31.4592 14.8462 31.4592 15.2536V16.2596C31.4592 16.6669 31.1738 17.0036 30.7582 17.0351C30.4822 17.0561 30.1092 17.0761 29.6125 17.0883C29.6169 18.1899 29.6206 19.3902 29.623 20.6961C30.1143 20.7083 30.4843 20.728 30.7582 20.7488C31.1738 20.7805 31.4592 21.1172 31.4592 21.5244V22.5304C31.4592 22.9378 31.1738 23.2745 30.7582 23.306C30.4848 23.3268 30.1159 23.3465 29.6257 23.3587L29.6259 24.2671C29.6259 25.2111 29.6253 26.1105 29.6242 26.9669C30.115 26.9791 30.4844 26.9988 30.7582 27.0196C31.1738 27.0513 31.4592 27.388 31.4592 27.7952V28.8013C31.4592 29.2087 31.1738 29.5453 30.7582 29.5769C30.4835 29.5977 30.1125 29.6175 29.6187 29.6297C29.6151 30.9518 29.6101 32.1513 29.6041 33.2372C30.1049 33.2494 30.4808 33.2695 30.7582 33.2905C31.1738 33.3222 31.4592 33.6588 31.4592 34.0661V35.0721C31.4592 35.4795 31.1738 35.8162 30.7582 35.8477C30.4775 35.869 30.0961 35.8893 29.5863 35.9015C29.5753 37.2764 29.563 38.4006 29.5509 39.3085C33.2685 39.0978 35.7518 38.7443 37.3367 38.43C38.9011 38.1199 39.9582 36.8998 40.1258 35.3351C40.363 33.1199 40.6259 29.1302 40.6259 22.326C40.6259 19.6605 40.5856 17.4269 40.5223 15.5625C40.4264 12.7427 38.0431 10.5783 35.1811 10.5783H22.1347C21.0706 10.5783 20.059 10.1225 19.3625 9.3294L17.58 7.29941Z" fill="#db9b2e"/>
<path d="M29.551 39.3085C28.7441 39.3542 27.879 39.3932 26.9526 39.4235C26.9399 38.4929 26.9271 37.3271 26.9155 35.8862C26.4832 35.8714 26.1256 35.8522 25.843 35.8332C25.3838 35.8026 25.0426 35.427 25.0426 34.9773V34.1607C25.0426 33.711 25.3838 33.3354 25.843 33.3048C26.1217 33.2862 26.4733 33.2672 26.8978 33.2523C26.8919 32.1581 26.8868 30.9488 26.8829 29.6143C26.4653 29.5996 26.1186 29.5808 25.843 29.5624C25.3838 29.5317 25.0426 29.1562 25.0426 28.7065V27.8898C25.0426 27.4401 25.3838 27.0646 25.843 27.034C26.1173 27.0157 26.4622 26.9969 26.8776 26.9822C26.8765 26.1213 26.8759 25.2169 26.8759 24.2669L26.8761 23.3431C26.4614 23.3286 26.1171 23.3098 25.843 23.2915C25.3838 23.2609 25.0426 22.8854 25.0426 22.4356V21.619C25.0426 21.1693 25.3838 20.7938 25.843 20.7631C26.1177 20.7449 26.4629 20.726 26.8789 20.7113C26.8813 19.3934 26.8849 18.183 26.8893 17.0729C26.4688 17.0581 26.1199 17.0392 25.843 17.0208C25.3838 16.9901 25.0426 16.6146 25.0426 16.1648V15.3483C25.0426 14.8985 25.3838 14.523 25.843 14.4923C26.1228 14.4737 26.4761 14.4546 26.9027 14.4398C26.9121 12.9189 26.9232 11.6418 26.9348 10.5783H29.5671C29.5786 11.6383 29.5896 12.9103 29.599 14.4246C30.1024 14.4368 30.4799 14.4568 30.7582 14.478C31.1738 14.5096 31.4593 14.8462 31.4593 15.2536V16.2596C31.4593 16.6669 31.1738 17.0036 30.7582 17.0351C30.4823 17.0561 30.1092 17.0761 29.6126 17.0882C29.617 18.1898 29.6206 19.39 29.623 20.6959C30.1145 20.7081 30.4843 20.728 30.7582 20.7488C31.1738 20.7803 31.4593 21.117 31.4593 21.5244V22.5304C31.4593 22.9377 31.1738 23.2743 30.7582 23.3059C30.4849 23.3266 30.1158 23.3465 29.6258 23.3587L29.6259 24.2669C29.6259 25.2111 29.6254 26.1105 29.6243 26.9668C30.1151 26.979 30.4845 26.9988 30.7582 27.0196C31.1738 27.0512 31.4593 27.3878 31.4593 27.7952V28.8013C31.4593 29.2085 31.1738 29.5452 30.7582 29.5767C30.4836 29.5977 30.1125 29.6175 29.6188 29.6297C29.6151 30.9518 29.61 32.1511 29.6041 33.2372C30.1052 33.2493 30.4808 33.2693 30.7582 33.2905C31.1738 33.322 31.4593 33.6586 31.4593 34.0661V35.0721C31.4593 35.4793 31.1738 35.816 30.7582 35.8475C30.4775 35.8688 30.0962 35.8891 29.5863 35.9013C29.5753 37.2764 29.5631 38.4007 29.551 39.3085Z" fill="#db9b2e"/>
</svg>
