<svg width="26" height="25" viewBox="0 0 26 25" fill="none" xmlns="http://www.w3.org/2000/svg">
<path d="M24.7065 20.6671L19.418 15.59C20.5107 14.009 21.1503 12.116 21.1503 10.081C21.1503 4.56692 16.4773 0.0808716 10.7335 0.0808716C4.98968 0.0808716 0.316711 4.56692 0.316711 10.081C0.316711 15.595 4.98968 20.0811 10.7335 20.0811C12.8533 20.0811 14.8252 19.4671 16.4721 18.4181L21.7607 23.4951C22.5732 24.2761 23.894 24.2761 24.7065 23.4951C25.5201 22.7141 25.5201 21.4481 24.7065 20.6671ZM3.44174 10.081C3.44174 6.22094 6.71261 3.0809 10.7335 3.0809C14.7544 3.0809 18.0252 6.22094 18.0252 10.081C18.0252 13.941 14.7544 17.081 10.7335 17.081C6.71261 17.081 3.44174 13.941 3.44174 10.081Z" fill="#db9b2e"/>
</svg>
