<svg width="34" height="31" viewBox="0 0 34 31" fill="none" xmlns="http://www.w3.org/2000/svg">
<path d="M16.5192 17.9054C21.3961 17.9054 25.3517 14.0509 25.3517 9.29872C25.3517 4.54656 21.3961 0.718422 16.5192 0.718422C11.6424 0.718422 7.68672 4.57296 7.68672 9.29872C7.68672 14.0245 11.6424 17.9054 16.5192 17.9054ZM16.5192 2.9625C20.0956 2.9625 23.0217 5.8138 23.0217 9.29872C23.0217 12.7836 20.0956 15.6349 16.5192 15.6349C12.9429 15.6349 10.0168 12.7836 10.0168 9.29872C10.0168 5.8138 12.9429 2.9625 16.5192 2.9625Z" fill="#db9b2e"/>
<path d="M1.18431 30.7184H31.8543C32.5045 30.7184 33.0193 30.2168 33.0193 29.5832C33.0193 23.643 28.0612 18.7852 21.938 18.7852H11.1006C5.00451 18.7852 0.0192871 23.6166 0.0192871 29.5832C0.0192871 30.2168 0.534065 30.7184 1.18431 30.7184ZM11.1006 21.0557H21.938C26.3814 21.0557 30.039 24.2766 30.608 28.4479H2.43062C2.99958 24.303 6.65722 21.0557 11.1006 21.0557Z" fill="#db9b2e"/>
</svg>
